<svg fill="#228BE6" xmlns="http://www.w3.org/2000/svg"  viewBox="0 0 32 32" width="32px" height="32px"><path d="M29.924,14.546c-0.206-1.978-0.827-3.844-1.789-5.517C28.13,9.02,28.13,9.01,28.125,9c-0.007-0.011-0.018-0.017-0.025-0.028	c-0.843-1.45-1.94-2.757-3.283-3.846c-2.478-2.01-5.558-3.068-8.689-3.1C16.084,2.02,16.045,2,16,2c-0.033,0-0.06,0.016-0.092,0.019	c-1.196,0.006-2.398,0.151-3.575,0.47c-0.533,0.144-0.849,0.693-0.704,1.226c0.144,0.534,0.698,0.854,1.226,0.704	C13.562,4.228,14.281,4.125,15,4.066V5.64c-0.469,0.047-0.932,0.115-1.38,0.221c-0.382,0.091-0.619,0.477-0.555,0.865l0.121,0.728	c-1.188,0.391-2.263,1.025-3.175,1.84L9.436,8.822C9.133,8.572,8.68,8.584,8.41,8.869C8.094,9.205,7.803,9.571,7.528,9.954	L6.155,9.162c0.169-0.243,0.336-0.486,0.526-0.72c0.605-0.748,1.297-1.419,2.055-1.996c0.287-0.219,0.583-0.424,0.887-0.613	c0.469-0.293,0.611-0.91,0.319-1.378C9.648,3.987,9.03,3.842,8.563,4.135c-0.356,0.223-0.703,0.463-1.04,0.72	C6.64,5.528,5.833,6.311,5.127,7.182C4.674,7.74,4.288,8.33,3.935,8.932C3.917,8.958,3.891,8.973,3.875,9	C3.86,9.026,3.86,9.055,3.848,9.082C1.377,13.418,1.446,18.7,3.851,22.929C3.862,22.952,3.862,22.978,3.875,23	c0.023,0.039,0.054,0.069,0.081,0.104c0.824,1.401,1.892,2.687,3.227,3.769C9.693,28.911,12.782,30,15.983,30	C15.988,30,15.993,30,15.997,30C15.998,30,15.999,30,16,30C16.001,30,16.003,30,16.004,30c0.373-0.001,0.749-0.015,1.125-0.045	c3.851-0.312,7.312-2.136,9.744-5.137c0.444-0.547,0.827-1.128,1.18-1.724c0.024-0.032,0.052-0.058,0.072-0.093	c0.012-0.021,0.012-0.045,0.022-0.066C29.597,20.406,30.233,17.502,29.924,14.546z M17,4.053c2.373,0.2,4.669,1.095,6.558,2.626	c0.892,0.724,1.659,1.56,2.297,2.477l-1.383,0.799c-0.275-0.383-0.565-0.75-0.882-1.085c-0.27-0.286-0.723-0.297-1.026-0.048	l-0.575,0.473c-0.912-0.815-1.987-1.449-3.175-1.84l0.121-0.728c0.065-0.388-0.172-0.774-0.555-0.865	C17.932,5.755,17.469,5.687,17,5.64V4.053z M5.156,10.894l1.373,0.792c-0.194,0.429-0.366,0.864-0.498,1.306	c-0.113,0.377,0.104,0.775,0.472,0.913l0.687,0.257C7.066,14.756,7,15.37,7,16s0.066,1.244,0.189,1.838l-0.687,0.257	c-0.368,0.138-0.584,0.536-0.472,0.913c0.132,0.442,0.304,0.877,0.499,1.306l-1.371,0.791C3.659,17.909,3.621,14.155,5.156,10.894z M15,27.95c-2.388-0.196-4.664-1.095-6.558-2.63c-0.901-0.731-1.661-1.571-2.291-2.479l1.377-0.795	c0.275,0.383,0.565,0.749,0.882,1.084c0.27,0.286,0.723,0.297,1.026,0.048l0.575-0.473c0.912,0.815,1.987,1.449,3.175,1.84	l-0.121,0.728c-0.065,0.388,0.172,0.774,0.555,0.865c0.449,0.107,0.911,0.175,1.38,0.221V27.95z M16,23	c-0.288,0-0.57-0.023-0.849-0.059l0.426-2.984c-1.15-0.122-2.152-0.72-2.801-1.607l-2.364,1.855	c-0.17-0.223-0.331-0.456-0.475-0.706c-0.144-0.25-0.265-0.506-0.373-0.764l2.783-1.117C12.128,17.123,12,16.577,12,16	s0.128-1.123,0.348-1.618l-2.783-1.117c0.108-0.259,0.229-0.515,0.373-0.764c0.144-0.25,0.305-0.482,0.475-0.706l2.364,1.855	c0.648-0.887,1.65-1.485,2.801-1.607l-0.426-2.984C15.43,9.023,15.712,9,16,9s0.57,0.023,0.849,0.059l-0.426,2.984	c1.15,0.122,2.152,0.72,2.801,1.607l2.364-1.855c0.17,0.223,0.331,0.456,0.475,0.706c0.144,0.25,0.265,0.506,0.373,0.764	l-2.783,1.117C19.872,14.877,20,15.423,20,16s-0.128,1.123-0.348,1.618l2.783,1.117c-0.108,0.259-0.229,0.515-0.373,0.764	c-0.144,0.25-0.305,0.482-0.475,0.706l-2.364-1.855c-0.648,0.887-1.65,1.485-2.801,1.607l0.426,2.984C16.57,22.977,16.288,23,16,23z M25.32,23.558c-2.079,2.564-5.032,4.124-8.32,4.398v-1.597c0.469-0.047,0.932-0.115,1.38-0.221	c0.382-0.091,0.619-0.477,0.555-0.865l-0.121-0.728c1.188-0.391,2.263-1.025,3.175-1.84l0.575,0.473	c0.303,0.25,0.756,0.238,1.026-0.048c0.317-0.335,0.607-0.702,0.882-1.084l1.375,0.794C25.678,23.083,25.509,23.326,25.32,23.558z M26.848,21.108l-1.376-0.794c0.194-0.43,0.366-0.864,0.499-1.306c0.113-0.377-0.104-0.775-0.472-0.913l-0.687-0.257	C24.934,17.244,25,16.63,25,16s-0.066-1.244-0.189-1.838l0.687-0.257c0.368-0.138,0.584-0.536,0.472-0.913	c-0.132-0.442-0.304-0.876-0.498-1.306l1.377-0.795c0.566,1.204,0.943,2.501,1.085,3.863C28.166,16.968,27.775,19.146,26.848,21.108	z"/></svg>